<?xml version="1.0" encoding="utf-8"?>
<!-- Generator: Adobe Illustrator 26.0.0, SVG Export Plug-In . SVG Version: 6.00 Build 0)  -->
<svg version="1.1" id="Layer_2" xmlns="http://www.w3.org/2000/svg" xmlns:xlink="http://www.w3.org/1999/xlink" x="0px" y="0px"
	 viewBox="0 0 1920 1080" style="enable-background:new 0 0 1920 1080;" xml:space="preserve">
<style type="text/css">
	.st0{fill:#2A48FF;stroke:#2A48FF;stroke-width:6;stroke-miterlimit:10;}
	.st1{fill:#231F20;stroke:#2A48FF;stroke-miterlimit:10;}
	.st2{fill:none;stroke:#2A48FF;stroke-width:18;stroke-miterlimit:10;}
</style>
<path class="st0" d="M1012.02,463.39l-15.26-8.22h-9l-18.39,8.22l-14.48,10.17l-6.26,10.57l-5.87,19.96v9.78l3.52,5.87l7.43,4.7
	l6.26,12.13l-2.35,9.39l-6.26,7.43l-8.61,19.17l2.74,15.26l7.43,6.65l8.61-2.35l4.3-23.48l11.54-19.91l11.15-6.7l13.3-17.22
	l16.99-14.07l15.65-12.13c0,0-0.95-13.71-0.95-14.89s-7.04-8.22-7.04-8.22l-1.96-6.26L1012.02,463.39"/>
<polygon class="st0" points="957.3,454.03 946.73,444.24 928.34,441.11 932.25,454.03 930.3,469.68 922.86,469.68 917.38,462.63 
	907.99,457.55 895.86,427.81 901.73,409.42 906.82,400.03 936.17,394.94 950.25,398.07 957.3,396.9 964.73,409.03 964.73,422.72 
	958.47,426.63 958.08,435.63 961.99,450.5 "/>
<polygon class="st0" points="875.43,408.87 858.8,386.76 875.53,364.71 932.92,343.92 926.7,365.83 920.83,368.96 913,368.96 
	902.83,378.74 901.26,385.78 903.61,392.83 892.26,407.3 "/>
<polyline class="st0" points="999.19,349.98 1033.21,366.29 1030.97,384.8 1027.56,388.79 1021.72,386.48 1017.1,373.83 
	1010.8,379.31 1003.66,390.28 996.94,390.28 994,385.64 996.94,352.02 1037.83,361.87 "/>
<polygon class="st0" points="1051.13,462.04 1034.3,443.25 1046.43,405.69 1049.17,379.47 1066.78,399.04 1078.52,420.75 
	1084.78,440.51 1088.3,455.38 1072.65,460.08 "/>
<polygon class="st0" points="939.02,367.5 941.38,368.93 946.36,370.13 950.21,364.14 957.55,364.14 966.64,362.47 971.89,368.21 
	977.48,362.47 977.86,355.04 960,349.98 944.17,354.09 "/>
<polygon class="st0" points="990.87,433.37 985.79,417.12 998.14,408.14 1002.21,422.9 "/>
<path class="st1" d="M1343.04,221.83"/>
<polygon class="st0" points="902.7,497.2 901.36,474.3 888.74,467.57 874.14,440.34 861.35,467.46 863.46,501.57 890.7,518.04 "/>
<polygon class="st0" points="849.57,394.94 858.8,430.2 851.3,445.54 824.7,462.04 824.7,433.83 "/>
<path class="st2" d="M1092.61,476.57c0,75.86-136.48,277.7-136.48,277.7s-33.51-48.94-67.53-107.68
	c-35.07-60.55-70.68-131.51-70.68-170.01c0-75.86,61.49-137.35,137.35-137.35S1092.61,400.71,1092.61,476.57z"/>
</svg>
